PathFileType	4	(X/Y/Z)	C:\Users\°ÂÌØÂü\Desktop\20210112\bx_n_10_1801-Unnamed.trc
DataRate	CameraRate	NumFrames	NumMarkers	Units	OrigDataRate	OrigDataStartFrame	OrigNumFrames
50.00	50.00	       5	0	mm	50.00	1	       563
Frame#	Time	
		

1	0.000	-594.38971	0.67345	1058.15540	-675.69452	291.96820	872.78540	-579.64697	-3.00505	806.59918	-574.15533	219.51283	815.85559	-685.28882	275.01025	743.58459	-717.23126	256.23260	643.05603	-683.55469	79.58277	574.10431	-681.15955	148.75407	577.16193	-656.92938	21.88676	519.13232	-719.66418	252.37219	576.69312	-760.35455	261.61142	502.84103	-667.09821	209.73953	534.11121	-688.75671	114.94216	261.26788	-648.71692	-67.44241	162.59111	-710.44360	153.78064	217.00148	-765.74780	227.87119	205.30116	-607.25641	-75.58176	158.22232	-882.63873	296.16394	144.63353	-668.57867	54.73129	158.21310	-595.73706	25.21950	167.13116	-547.02905	-31.07700	164.10176	-673.11517	171.70543	157.86842	-589.99628	218.64729	173.44566	-658.58264	298.10660	158.25226	-622.32373	306.80188	158.69633	-553.79541	256.50430	164.13640	-527.99902	304.12732	146.59570	-668.11102	130.70190	1847.49255	-700.88190	304.19562	1530.69458	-517.30908	-72.79568	143.29193	-794.33441	178.77164	183.47862	-690.30377	-56.77299	1537.84094	-788.04657	44.12247	173.03656	-794.65558	107.67004	1052.07397	-754.36639	-37.32628	490.27371	-756.20685	-14.77266	207.52661	-876.01624	-78.73471	141.48239	-657.96985	-64.93556	874.94324				-598.10168	114.79889	1348.63940	-595.43024	249.66182	1067.33276	-713.09674	73.75684	216.65071	-678.89673	-54.73101	759.75317	-701.05408	-28.67316	619.11676	-710.11200	-25.92147	569.37701	
2	0.020	-594.33368	0.64327	1058.17969	-675.47888	292.09784	873.25574	-579.37659	-2.87052	806.55786	-574.09924	219.59125	815.93274	-685.18781	274.92319	743.58148	-717.20398	256.12759	643.08191	-683.33105	79.47379	574.00763	-681.07910	148.54308	577.38605	-656.82233	22.04757	519.20923	-719.55774	251.92233	576.39392	-760.34229	261.54370	502.79007	-667.15350	209.51067	534.04590	-688.75671	114.94216	261.26788	-648.67212	-67.27504	162.50203	-710.71484	153.86197	216.81699	-765.94629	227.87686	205.23184	-607.17328	-75.51281	158.33517	-882.64362	296.11987	144.64781	-668.52509	54.66056	158.20950	-595.74927	25.28834	167.10358	-546.99945	-31.12506	163.96600	-673.22235	172.01826	157.69408	-590.06390	218.77599	173.55447	-658.73926	298.14859	158.27557	-622.22064	306.62555	158.55087	-553.66846	256.47083	164.33319	-527.99902	304.12732	146.59570	-668.14246	130.95454	1847.53992	-700.84723	304.03186	1530.59631	-517.30908	-72.79568	143.29193	-794.39648	178.82008	183.50380	-690.32733	-56.76862	1537.82556	-788.12244	43.97622	173.14627	-794.60608	107.94495	1052.05054	-754.41669	-37.63462	490.30743	-756.13068	-15.04367	207.44450	-875.99792	-78.69180	141.55168	-658.10895	-65.23729	874.96875				-597.97845	114.77277	1348.56335	-595.33057	249.37228	1067.16699	-713.09674	73.75684	216.65071	-678.79596	-54.78679	759.75470	-700.86285	-28.66629	619.11023	-710.07843	-26.01390	569.79163	
3	0.040	-594.09357	0.52173	1058.44519	-675.30615	291.73230	872.72852	-579.31897	-2.89881	806.71729	-573.91528	219.52602	816.01678	-684.83527	275.20132	744.02081	-717.18890	256.16699	643.19513	-683.33105	79.47379	574.00763	-681.00916	148.54974	577.23590	-656.82233	22.04757	519.20923	-719.52930	251.84499	576.45087	-760.26111	261.71143	503.01398	-667.07520	209.63577	534.08405	-688.56592	114.86947	261.34891	-648.75079	-67.31524	162.57509	-710.34222	153.62422	217.02002	-765.81610	227.82759	205.23206	-607.22668	-75.46602	158.32838	-882.42584	296.01208	144.62569	-668.49445	54.73461	158.08687	-595.86615	25.22948	167.03734	-547.06885	-31.10274	164.03011	-673.23505	171.94397	157.63565	-590.08057	218.85408	173.67912	-658.67236	298.23328	158.34073	-622.42212	306.55136	158.65211	-553.80255	256.44873	164.29626	-527.99078	304.21622	146.57008	-667.87781	131.27176	1847.46106	-700.69812	304.02179	1530.26599	-517.34808	-72.68044	143.41997	-794.34479	178.74091	183.49147	-690.25934	-56.72255	1537.82959	-788.12659	44.06029	173.04407	-794.38104	107.67693	1051.91626	-754.35645	-37.57058	490.38422	-756.27246	-14.92462	207.55473	-875.97607	-78.80654	141.45569	-657.69196	-65.14709	874.91614				-597.91199	114.64016	1348.66748	-594.92896	249.24718	1067.17261	-713.09674	73.75684	216.65071	-678.82800	-54.63433	759.78430	-700.70398	-28.66442	618.91675	-710.11230	-26.08974	569.65070	
4	0.060	-593.99103	0.34353	1058.46179	-675.18115	291.65430	872.68542	-579.20789	-2.91309	806.55206	-573.76093	219.42474	815.81470	-684.49976	275.17905	743.87628	-716.91589	256.20187	643.21539	-683.19299	79.44793	573.87268	-681.07910	148.54308	577.38605	-656.69043	21.89304	519.27362	-719.44232	251.96162	576.58954	-760.27130	261.62308	502.99203	-667.07544	209.45100	534.08240	-688.58002	114.93652	261.25290	-648.75079	-67.31524	162.57509	-710.60168	153.70518	216.83034	-765.86658	227.78030	205.07370	-607.21411	-75.24982	158.26311	-882.55457	296.30322	144.80077	-668.64014	54.75451	158.30965	-595.86877	25.20505	166.85812	-546.99548	-31.04242	164.06198	-673.15808	171.72025	157.89079	-590.07153	218.76035	173.75020	-658.66418	298.23837	158.27823	-622.36932	306.67444	158.88553	-553.66736	256.54578	164.22685	-528.03583	304.25760	146.54501	-667.72589	131.53799	1847.52722	-700.52789	304.34729	1530.13147	-517.42841	-72.76482	143.34215	-794.40375	178.84184	183.39795	-689.95331	-56.62841	1537.84558	-788.16785	43.95433	173.09290	-794.19775	107.61961	1051.85620	-754.22296	-37.52940	490.38660	-756.34827	-15.06207	207.78387	-875.99792	-78.69180	141.55168	-657.54877	-65.08801	874.83777				-597.64050	114.64070	1348.29041	-594.92896	249.24718	1067.17261	-713.09674	73.75684	216.65071	-678.84393	-54.73553	759.83093	-700.75916	-28.69125	618.96460	-709.75690	-26.03572	569.43994	
5	0.080	-593.82788	0.34724	1058.29944	-674.77521	291.98090	872.79437	-579.22980	-2.99858	806.47748	-573.60999	219.33784	815.79376	-684.44440	275.19833	743.77991	-716.96899	255.84596	643.13489	-682.85419	79.39664	573.84546	-681.00916	148.54974	577.23590	-656.69043	21.89304	519.27362	-719.23779	251.82440	576.47955	-760.29944	261.53497	502.81967	-666.99591	209.32419	534.10370	-688.56592	114.86947	261.34891	-648.82007	-67.36679	162.66025	-710.60168	153.70518	216.83034	-765.81610	227.82759	205.23206	-607.22668	-75.46602	158.32838	-882.51447	296.03040	144.60242	-668.64014	54.75451	158.30965	-595.79077	25.33281	167.05734	-547.02905	-31.07700	164.10176	-673.23505	171.94397	157.63565	-590.08350	218.91539	173.61693	-658.67236	298.23328	158.34073	-622.32977	306.64459	158.74600	-553.70117	256.52158	164.19350	-527.90778	304.36624	146.72336	-667.62811	131.82370	1847.53577	-700.64392	304.37567	1530.07996	-517.30908	-72.79568	143.29193	-794.34479	178.74091	183.49147	-689.73560	-56.57371	1537.86121	-788.10278	44.01756	173.12819	-794.06897	107.49368	1051.82056	-754.24438	-37.54703	490.32635	-756.26147	-14.90135	207.50899	-875.99792	-78.69180	141.55168	-657.54120	-65.32504	874.96405				-597.52301	114.59203	1348.31714	-594.78473	249.12289	1066.99451	-712.97461	73.46928	216.22400	-678.68304	-54.89330	759.67853	-700.61841	-28.77739	619.04572	-709.70166	-25.93978	569.21295	
